# xmcd
#
# Track frame offsets: 
#        150
#        16717
#        33358
#        50863
#        67626
#        83851
#        99450
#        114974
#        132253
#        148686
#        167101
#        182228
#
# Disc length: 2608 seconds
#
# Revision: 0
# Processed by: cddbd v1.5.2PL0 Copyright (c) Steve Scherf et al.
# Submitted via: ExactAudioCopy v0.99pb5
#
DISCID=990a2e0c
DTITLE=Sonja Aldén - Under Mitt Tak
DYEAR=2008
DGENRE=Pop
TTITLE0=Under Mitt Tak
TTITLE1=En Del Är Vackra När De Dör
TTITLE2=Nån Som Du
TTITLE3=Din Klocka Tickar
TTITLE4=Jag Vet Att Du Kan Höra Mig
TTITLE5=Lyckan Kommer, Lyckan Går
TTITLE6=Det Blå
TTITLE7=Starkare Än Då
TTITLE8=Allt Jag Ser
TTITLE9=Du Får Inte
TTITLE10=Du Är En Del Av Mig
TTITLE11=Välkommen Hem
EXTD=
EXTT0=
EXTT1=
EXTT2=
EXTT3=
EXTT4=
EXTT5=
EXTT6=
EXTT7=
EXTT8=
EXTT9=
EXTT10=
EXTT11=
PLAYORDER=
